<?xml version="1.0" encoding="iso-8859-1"?>
<!-- Generator: Adobe Illustrator 19.0.0, SVG Export Plug-In . SVG Version: 6.00 Build 0)  -->
<svg version="1.1" id="Layer_1" xmlns="http://www.w3.org/2000/svg" xmlns:xlink="http://www.w3.org/1999/xlink" x="0px" y="0px"
	 viewBox="0 0 512.001 512.001" style="enable-background:new 0 0 512.001 512.001;" xml:space="preserve">
<path style="fill:#9BF57D;" d="M341.511,179.04c0-47.227-38.284-85.511-85.511-85.511s-85.511,38.284-85.511,85.511v25.653h171.022
	V179.04z"/>
<g>
	<path style="fill:#8CE16E;" d="M273.102,95.247c-5.526-1.122-11.245-1.718-17.102-1.718c-47.227,0-85.511,38.284-85.511,85.511
		v25.653h53.444V179.04C223.934,137.671,245.05,103.171,273.102,95.247z"/>
	<path style="fill:#8CE16E;" d="M256,196.142c-37.148,0-71.643-8.072-100.278-21.878c-8.476-4.087-18.788-0.94-22.898,7.526
		c-14.051,28.939-22.193,63.163-22.193,99.863c0,103.898,65.083,188.124,145.369,188.124s145.369-84.226,145.369-188.124
		c0-36.701-8.143-70.924-22.193-99.863c-4.11-8.466-14.421-11.612-22.898-7.526C327.642,188.07,293.148,196.142,256,196.142z"/>
</g>
<path style="fill:#B4FF8C;" d="M304.392,170.506c-3.524,0-6.823-2.188-8.067-5.704c-6.021-17.061-22.23-28.518-40.326-28.518
	c-4.727,0-8.551-3.824-8.551-8.551c0-4.727,3.824-8.551,8.551-8.551c25.336,0,48.025,16.042,56.459,39.925
	c1.57,4.451-0.769,9.336-5.219,10.914C306.296,170.347,305.336,170.506,304.392,170.506z"/>
<path style="fill:#9BF57D;" d="M341.503,388.442c-1.494,0-3.014-0.392-4.392-1.22c-4.05-2.43-5.362-7.683-2.931-11.733
	c15.758-26.238,24.434-59.566,24.434-93.837c0-5.453-0.226-10.981-0.668-16.41c-0.376-4.71,3.123-8.835,7.833-9.219
	c4.676-0.342,8.835,3.132,9.219,7.833c0.476,5.887,0.718,11.874,0.718,17.795c0,37.328-9.545,73.778-26.873,102.638
	C347.239,386.964,344.408,388.442,341.503,388.442z M360.701,238.889c-3.8,0-7.274-2.556-8.267-6.405
	c-1.537-5.929-3.382-11.775-5.461-17.369c-1.654-4.426,0.593-9.353,5.018-10.998c4.426-1.654,9.353,0.593,10.998,5.018
	c2.296,6.146,4.309,12.559,5.995,19.056c1.185,4.567-1.553,9.236-6.129,10.422C362.137,238.806,361.411,238.889,360.701,238.889z"/>
<g>
	<path style="fill:#7DC86E;" d="M182.247,281.653c0-33.735,5.196-65.365,14.258-92.732c-14.541-3.652-28.226-8.602-40.783-14.657
		c-8.476-4.087-18.788-0.94-22.898,7.526c-14.051,28.939-22.193,63.163-22.193,99.864c0,103.898,65.083,188.124,145.369,188.124
		c6.932,0,13.746-0.642,20.419-1.857C223.197,455.074,182.247,376.581,182.247,281.653z"/>
	<rect x="247.982" y="251.723" style="fill:#7DC86E;" width="16.033" height="90.855"/>
</g>
<path d="M256,282.185c-4.427,0-8.017,3.588-8.017,8.017v17.102c0,4.428,3.589,8.017,8.017,8.017s8.017-3.588,8.017-8.017v-17.102
	C264.017,285.774,260.428,282.185,256,282.185z"/>
<path d="M494.323,329.983l-28.215-70.538c-4.932-12.332-18.668-18.702-31.265-14.502l-26.992,8.998
	c-2.383-21.462-7.54-42.247-15.258-61.549l36.369-18.184c8.117-4.059,14.823-10.765,18.882-18.882l29.105-58.211
	c1.981-3.96,0.375-8.776-3.585-10.756c-3.96-1.982-8.776-0.376-10.755,3.585l-29.105,58.211c-2.517,5.036-6.677,9.196-11.712,11.713
	l-35.699,17.849c-6.14-11.84-20.923-16.639-33.295-10.674c-1.263,0.609-2.548,1.19-3.83,1.773
	c-3.058-27.994-18.514-52.317-40.752-67.336l48.886-89.623c2.121-3.888,0.688-8.756-3.199-10.877
	c-3.889-2.12-8.756-0.688-10.876,3.198l-48.818,89.5c-11.671-5.244-24.604-8.166-38.206-8.166c-13.603,0-26.535,2.921-38.206,8.166
	L168.976,4.179c-2.12-3.886-6.989-5.319-10.876-3.198s-5.32,6.989-3.199,10.877l48.886,89.623
	c-22.237,15.019-37.694,39.341-40.752,67.336c-1.283-0.584-2.566-1.164-3.831-1.773c-12.372-5.965-27.155-1.165-33.294,10.674
	l-35.699-17.849c-5.036-2.517-9.195-6.677-11.713-11.713l-29.105-58.21c-1.981-3.959-6.794-5.564-10.755-3.585
	c-3.96,1.981-5.566,6.795-3.585,10.756l29.105,58.211c4.059,8.117,10.764,14.823,18.882,18.882l36.369,18.184
	c-7.718,19.302-12.876,40.086-15.258,61.549l-26.992-8.998c-12.602-4.198-26.333,2.17-31.265,14.502l-28.215,70.538
	c-1.645,4.111,0.355,8.776,4.466,10.421c0.977,0.39,1.984,0.575,2.975,0.575c3.182,0,6.192-1.907,7.446-5.042l28.215-70.538
	c1.784-4.459,6.751-6.766,11.31-5.245l30.798,10.267c-0.167,3.734-0.271,7.477-0.271,11.234c0,21.978,2.817,43.41,8.209,63.625
	l-33.267,16.633c-11.108,5.555-16.523,18.629-12.596,30.411l38.065,114.195c1.12,3.36,4.248,5.483,7.604,5.483
	c0.84,0,1.695-0.134,2.536-0.414c4.201-1.4,6.47-5.941,5.071-10.141L80.172,387.253c-1.421-4.262,0.538-8.991,4.556-11.001
	l30.831-15.415c7.441,21.599,17.972,41.488,31.307,58.743c29.009,37.54,67.766,58.215,109.134,58.215s80.126-20.674,109.134-58.215
	c13.333-17.255,23.866-37.144,31.307-58.743l30.831,15.415c4.018,2.009,5.977,6.739,4.557,11l-38.065,114.195
	c-1.4,4.201,0.87,8.741,5.071,10.141c0.841,0.28,1.695,0.414,2.536,0.414c3.356,0,6.484-2.124,7.604-5.483l38.065-114.196
	c3.927-11.781-1.488-24.855-12.597-30.41l-33.267-16.633c5.394-20.215,8.209-41.647,8.209-63.625c0-3.756-0.105-7.5-0.271-11.234
	l30.798-10.267c4.558-1.522,9.525,0.786,11.31,5.245l28.215,70.538c1.254,3.135,4.264,5.042,7.446,5.042
	c0.991,0,1.999-0.185,2.975-0.575C493.968,338.759,495.968,334.094,494.323,329.983z M256,101.546
	c41.415,0,75.345,32.657,77.395,73.571c-23.887,8.534-50.254,13.008-77.395,13.008c-27.14,0-53.507-4.474-77.395-13.008
	C180.656,134.203,214.585,101.546,256,101.546z M256,230.881c-14.44,0-26.188-11.747-26.188-26.188v-1.865
	c8.626,0.873,17.37,1.331,26.188,1.331s17.562-0.456,26.188-1.331v1.865C282.188,219.134,270.44,230.881,256,230.881z
	 M264.017,461.447V341.511c0-4.428-3.589-8.017-8.017-8.017s-8.017,3.588-8.017,8.017v119.936
	c-72.018-5.463-129.335-84.01-129.335-179.793c0-34.223,7.396-67.543,21.388-96.362c1.475-3.039,4.612-4.786,7.953-4.786
	c1.417,0,2.873,0.315,4.252,0.98c18.883,9.105,39.698,15.562,61.539,19.201v4.007c0,20.54,14.745,37.691,34.204,41.448v9.854
	c0,4.428,3.589,8.017,8.017,8.017c4.427,0,8.017-3.588,8.017-8.017v-9.854c19.459-3.757,34.204-20.908,34.204-41.448v-4.007
	c21.841-3.64,42.655-10.097,61.538-19.201c4.627-2.23,10.103-0.523,12.205,3.806c13.993,28.819,21.388,62.141,21.388,96.362
	C393.352,377.435,336.035,455.983,264.017,461.447z"/>
<g>
</g>
<g>
</g>
<g>
</g>
<g>
</g>
<g>
</g>
<g>
</g>
<g>
</g>
<g>
</g>
<g>
</g>
<g>
</g>
<g>
</g>
<g>
</g>
<g>
</g>
<g>
</g>
<g>
</g>
</svg>
